<svg id="ukko1" xmlns="http://www.w3.org/2000/svg" viewBox="0 0 77.66 128.03"><defs><style>.cls-1,.cls-2{fill:none;stroke:#231f20;}.cls-2{stroke-miterlimit:10;}</style></defs><path class="cls-1" d="M75.52,295.42c-5.06-1.42-7.59-2.13-9.58-3.48-4.5-3.05-7.48-8.29-8.55-10.59a30.24,30.24,0,0,1-2.62-13.93,21.56,21.56,0,0,1,3-10.74,24.08,24.08,0,0,1,8.71-8.84,29.2,29.2,0,0,1,8.71-3.19,35.29,35.29,0,0,1,13.06-.3,26.69,26.69,0,0,1,9.87,3.2,25.72,25.72,0,0,1,7.84,7.26,19.71,19.71,0,0,1,3.35,11.87,23.82,23.82,0,0,1-.83,6.55l-4.07,15.19a15.51,15.51,0,0,1-6.58,7.74A17.43,17.43,0,0,1,89.16,298a42.62,42.62,0,0,1-8.44-1.22C78.35,296.28,76.55,295.71,75.52,295.42Z" transform="translate(-32.19 -243.38)"/><path class="cls-1" d="M81,300.81a24.23,24.23,0,0,1-1.87-4.62" transform="translate(-32.19 -243.38)"/><path class="cls-1" d="M65.94,291.94c-1-.82-5.86-2.29-8.21-2.31a11,11,0,0,0-6.89,2.18c-14.56,12.26-15.55,13.35-16.26,16a16.12,16.12,0,0,0,.29,9.88c.75,1.93,2.14,3.51,4.94,6.67,4.34,4.92,7.32,6.77,8.71,7.55,2.2,1.25,3.3,1.87,4.64,1.74,0,0,2-.18,7.55-6.09h0a10,10,0,0,0-.84-2.8.16.16,0,0,1,0-.11c0-.34,1.09.54,2.13-.33,2.53-2.13.34-3.84.22-4-2.61-2.67-.64-.36-2.35-4.09-1-2.21-.89-1.63-2-2.07s-2.06.52-3.2.87c-1.78.56-3.77-3.76-9.58-5.22" transform="translate(-32.19 -243.38)"/><path class="cls-1" d="M49.56,311.82c3.17-1.55,5.57-2.76,6.72-3.41,6.7-3.8,5.83-2.92,8.84-8,1.66-2.81-.72-6.69-1.07-7.14" transform="translate(-32.19 -243.38)"/><path class="cls-1" d="M83.94,298.88c.19.77,6.23.74,7,4.81,1.26,7-2.18,9.2-4.29,11.37a13,13,0,0,1-4.24,2.88" transform="translate(-32.19 -243.38)"/><path class="cls-2" d="M83.43,297.38c1,2.25,1.49,7,1.48,8.62,0,8.49-11.53,16.65-24.15,21.08" transform="translate(-32.19 -243.38)"/><path class="cls-2" d="M78.15,318.23c4.69-.18,9-.43,11.59-.73.55-.06,1.39-.17,1.74.29.78,1-.88,4.64-3.77,5.66a6.35,6.35,0,0,1-6.39-1.74" transform="translate(-32.19 -243.38)"/><path class="cls-1" d="M85.81,323.63a24,24,0,0,0-2.31,4.9c-.46,2,1.41,2.62.15,4.36" transform="translate(-32.19 -243.38)"/><path class="cls-2" d="M91.79,319c.84.2,4.72,2,5.5,4.19.29.83.24,1.69-1.45,5.66s-2.58,6.07-3.63,6.83c-2.69,1.94-6.44.93-8.27.43-3.81-1-5.84-3.55-8.1-6.16-2.45-2.83-5-5.77-5.61-7" transform="translate(-32.19 -243.38)"/><path class="cls-2" d="M65.66,325.08c1.27,1.16,7.78,7.27,10.15,12.32.94,2,2.12,4.44,2,5.65-.16,1.88-3,8.2-3.45,8.92-4.68,7.54-2.77,6.24-6.11,8.19-1.13.66-3.55.7-7.7-.13" transform="translate(-32.19 -243.38)"/><path class="cls-2" d="M46.78,370.35c-1-.71-3.68-2.48-4.36-5.38a9.65,9.65,0,0,1,.58-5.66c1.08-3.07,3.14-5.58,6.56-9.28,2.14-2.31,4.82-6.3,8.12-7.42a2.5,2.5,0,0,0,1.9-1.88c.66-2-3.7-5-6.66-7.12" transform="translate(-32.19 -243.38)"/><path class="cls-2" d="M73.32,370.34" transform="translate(-32.19 -243.38)"/><path class="cls-2" d="M46.37,370.34" transform="translate(-32.19 -243.38)"/><path class="cls-2" d="M42.24,326.79c-.81,0-4.28.14-5.77,1a8.41,8.41,0,0,0-3.78,5.8l.29,19a5.87,5.87,0,0,0,3.78,1c3.24-.32,6.72-5.49,6.79-5.63" transform="translate(-32.19 -243.38)"/><path class="cls-2" d="M49.56,350c-1.42-.43-5.8-1.5-6.12-1.9-1.5-1.88-1.37-5,.43-7.69" transform="translate(-32.19 -243.38)"/><path class="cls-2" d="M46.37,370.34l26.82.56a12.87,12.87,0,0,0-1.74-5.21,19.47,19.47,0,0,0-5.8-5" transform="translate(-32.19 -243.38)"/><path class="cls-1" d="M72,294.4a14.83,14.83,0,0,1-.9,4.08" transform="translate(-32.19 -243.38)"/><path class="cls-1" d="M103.42,290.06" transform="translate(-32.19 -243.38)"/></svg>