<?xml version="1.0" encoding="utf-8"?>
<!-- Generator: Adobe Illustrator 24.1.0, SVG Export Plug-In . SVG Version: 6.00 Build 0)  -->
<svg version="1.1" id="Layer_1" xmlns="http://www.w3.org/2000/svg" xmlns:xlink="http://www.w3.org/1999/xlink" x="0px" y="0px"
	 viewBox="0 0 24 24" style="enable-background:new 0 0 24 24;" xml:space="preserve">
<style type="text/css">
	.st0{display:none;fill:#00A216;}
	.st1{fill:#4DAAC9;}
</style>
<rect class="st0" width="24" height="24"/>
<g>
	<path class="st1" d="M9.83,14.29v4.82H6.4V4.89h5.67c1.09,0,2.05,0.2,2.89,0.6s1.48,0.97,1.94,1.71s0.69,1.58,0.69,2.51
		c0,1.39-0.5,2.5-1.49,3.33c-0.99,0.83-2.36,1.25-4.09,1.25H9.83z M9.83,11.64h2.25c0.66,0,1.17-0.17,1.52-0.5s0.52-0.8,0.52-1.41
		c0-0.66-0.18-1.19-0.54-1.59s-0.85-0.6-1.46-0.61H9.83V11.64z"/>
</g>
</svg>
